<svg width="41" height="16" viewBox="0 0 41 16" fill="none" xmlns="http://www.w3.org/2000/svg">
<path d="M10.95 1.9V11.98L2.97 3.13L2.685 2.77L2.73 3.22V10.6H3.855V11.5H0.525V10.6H1.785V1.9H0.525V0.999999H2.205L9.765 9.49L10.05 9.88L10.005 9.4V1.9H8.895V0.999999H12.24V1.9H10.95ZM20.3788 11.5H18.4138V11.05C18.4138 10.96 18.4138 10.88 18.4138 10.81C18.4138 10.74 18.4138 10.66 18.4138 10.57C18.3738 10.67 18.2938 10.78 18.1738 10.9C18.0638 11.02 17.9188 11.13 17.7388 11.23C17.5488 11.35 17.3288 11.445 17.0788 11.515C16.8388 11.585 16.5688 11.62 16.2688 11.62C15.8488 11.62 15.4538 11.545 15.0838 11.395C14.7238 11.235 14.4138 11.02 14.1538 10.75C13.8838 10.49 13.6688 10.185 13.5088 9.835C13.3588 9.475 13.2838 9.095 13.2838 8.695C13.2838 8.295 13.3588 7.915 13.5088 7.555C13.6688 7.195 13.8838 6.885 14.1538 6.625C14.4138 6.355 14.7238 6.14 15.0838 5.98C15.4538 5.82 15.8488 5.74 16.2688 5.74C16.8388 5.74 17.3088 5.86 17.6788 6.1C18.0488 6.34 18.2938 6.6 18.4138 6.88C18.4138 6.72 18.4188 6.555 18.4288 6.385C18.4488 6.215 18.4638 6.045 18.4738 5.875H19.2538V10.6H20.3788V11.5ZM16.2688 6.67C15.9688 6.67 15.6888 6.725 15.4288 6.835C15.1688 6.935 14.9538 7.085 14.7838 7.285C14.6038 7.465 14.4688 7.675 14.3788 7.915C14.2888 8.145 14.2438 8.4 14.2438 8.68C14.2438 8.99 14.3038 9.28 14.4238 9.55C14.5438 9.81 14.7138 10.03 14.9338 10.21C15.1038 10.36 15.2988 10.48 15.5188 10.57C15.7488 10.66 15.9988 10.705 16.2688 10.705C16.5488 10.705 16.8088 10.655 17.0488 10.555C17.2988 10.455 17.5138 10.32 17.6938 10.15C17.8838 9.97 18.0338 9.755 18.1438 9.505C18.2538 9.245 18.3088 8.97 18.3088 8.68C18.3088 8.39 18.2538 8.12 18.1438 7.87C18.0338 7.61 17.8838 7.395 17.6938 7.225C17.5138 7.045 17.2988 6.91 17.0488 6.82C16.8088 6.72 16.5488 6.67 16.2688 6.67ZM24.5483 11.5H21.4283V10.6H22.5833V6.775H21.5483V5.875H23.3933L23.4083 6.205C23.4183 6.415 23.4283 6.605 23.4383 6.775C23.4483 6.935 23.4633 7.12 23.4833 7.33C23.6933 6.85 24.0083 6.47 24.4283 6.19C24.8583 5.91 25.3583 5.765 25.9283 5.755C26.4583 5.755 26.8883 5.895 27.2183 6.175C27.5483 6.445 27.7433 6.805 27.8033 7.255C28.0133 6.795 28.3283 6.435 28.7483 6.175C29.1783 5.905 29.6683 5.765 30.2183 5.755C30.7883 5.755 31.2383 5.91 31.5683 6.22C31.8983 6.53 32.0733 6.935 32.0933 7.435V10.6H33.1283V11.5H30.0083V10.6H31.1483V7.81C31.1283 7.51 31.0183 7.255 30.8183 7.045C30.6283 6.825 30.3383 6.705 29.9483 6.685C29.6683 6.685 29.3983 6.735 29.1383 6.835C28.8883 6.925 28.6683 7.055 28.4783 7.225C28.2783 7.395 28.1183 7.595 27.9983 7.825C27.8783 8.055 27.8183 8.305 27.8183 8.575V10.6H28.8383V11.5H25.7183V10.6H26.8733V7.81C26.8533 7.51 26.7433 7.255 26.5433 7.045C26.3533 6.825 26.0583 6.705 25.6583 6.685C25.3683 6.685 25.0933 6.735 24.8333 6.835C24.5833 6.925 24.3633 7.055 24.1733 7.225C23.9733 7.395 23.8133 7.6 23.6933 7.84C23.5833 8.07 23.5283 8.325 23.5283 8.605V10.6H24.5483V11.5ZM37.1425 6.67C36.8125 6.67 36.5125 6.735 36.2425 6.865C35.9825 6.985 35.7575 7.155 35.5675 7.375C35.4175 7.565 35.3025 7.785 35.2225 8.035C35.1425 8.285 35.1175 8.55 35.1475 8.83C35.7175 8.61 36.2825 8.39 36.8425 8.17C37.4125 7.95 37.9825 7.735 38.5525 7.525C38.3925 7.265 38.1925 7.06 37.9525 6.91C37.7125 6.75 37.4425 6.67 37.1425 6.67ZM39.0775 10.825C38.8275 11.075 38.5375 11.27 38.2075 11.41C37.8875 11.55 37.5325 11.62 37.1425 11.62C36.7325 11.62 36.3425 11.545 35.9725 11.395C35.6125 11.235 35.3025 11.025 35.0425 10.765C34.7725 10.495 34.5575 10.185 34.3975 9.835C34.2475 9.475 34.1725 9.09 34.1725 8.68C34.1725 8.28 34.2475 7.9 34.3975 7.54C34.5575 7.18 34.7725 6.865 35.0425 6.595C35.3025 6.335 35.6125 6.13 35.9725 5.98C36.3425 5.82 36.7325 5.74 37.1425 5.74C37.4525 5.74 37.7475 5.8 38.0275 5.92C38.3075 6.04 38.5625 6.2 38.7925 6.4C39.0125 6.61 39.2025 6.855 39.3625 7.135C39.5325 7.415 39.6625 7.72 39.7525 8.05C39.0225 8.33 38.2975 8.61 37.5775 8.89C36.8575 9.16 36.1325 9.435 35.4025 9.715C35.5725 10.015 35.8075 10.255 36.1075 10.435C36.4075 10.615 36.7525 10.705 37.1425 10.705C37.4125 10.705 37.6625 10.66 37.8925 10.57C38.1225 10.47 38.3225 10.33 38.4925 10.15L39.0775 10.825Z" fill="black"/>
</svg>
