<svg width="404" height="67" viewBox="0 0 404 67" fill="none" xmlns="http://www.w3.org/2000/svg">
<path d="M15.92 28.74C15.1467 29.4067 14.2533 29.9267 13.24 30.3C12.2267 30.6467 11.16 30.82 10.04 30.82C9.02667 30.82 8.04 30.7133 7.08 30.5C6.12 30.26 5.24 29.9533 4.44 29.58C3.64 29.2067 2.92 28.78 2.28 28.3C1.66667 27.82 1.18667 27.3133 0.84 26.78V22.14H4V25.7C4.69333 26.2333 5.52 26.7 6.48 27.1C7.44 27.4733 8.52 27.66 9.72 27.66C10.4133 27.66 11.08 27.5667 11.72 27.38C12.36 27.1667 12.9333 26.8733 13.44 26.5C13.92 26.1 14.3067 25.6067 14.6 25.02C14.8933 24.4333 15.04 23.7533 15.04 22.98C15.04 22.5 15 22.02 14.92 21.54C14.8667 21.06 14.7333 20.6467 14.52 20.3C14.1733 19.74 13.76 19.3 13.28 18.98C12.8267 18.6333 12.2933 18.3133 11.68 18.02C10.72 17.62 9.68 17.2733 8.56 16.98C7.44 16.6867 6.4 16.2867 5.44 15.78C4.45333 15.2733 3.62667 14.5667 2.96 13.66C2.32 12.7533 1.98667 11.4733 1.96 9.82C1.93333 8.94 2.05333 8.06 2.32 7.18C2.58667 6.3 3.02667 5.5 3.64 4.78C4.25333 4.06 5.06667 3.47333 6.08 3.02C7.09333 2.56666 8.33333 2.34 9.8 2.34C10.28 2.34 10.8 2.36666 11.36 2.42C11.92 2.47333 12.5067 2.58 13.12 2.74C13.7333 2.9 14.36 3.14 15 3.46C15.6667 3.78 16.32 4.20667 16.96 4.74V8.66H13.8V6.3C13.2933 6.08667 12.7067 5.9 12.04 5.74C11.3733 5.58 10.64 5.5 9.84 5.5C9.04 5.5 8.34667 5.63333 7.76 5.9C7.17333 6.14 6.69333 6.47333 6.32 6.9C5.97333 7.3 5.70667 7.76667 5.52 8.3C5.36 8.80667 5.28 9.35333 5.28 9.94C5.28 10.74 5.46667 11.3933 5.84 11.9C6.21333 12.38 6.70667 12.7933 7.32 13.14C8.28 13.6467 9.42667 14.1 10.76 14.5C12.0933 14.8733 13.3733 15.3533 14.6 15.94C15.72 16.4733 16.6267 17.3 17.32 18.42C18.0133 19.54 18.36 21.0733 18.36 23.02C18.36 24.22 18.1333 25.3 17.68 26.26C17.2533 27.22 16.6667 28.0467 15.92 28.74ZM39.5816 30.5H33.6216V29.7C33.6216 29.5133 33.6216 29.38 33.6216 29.3C33.6216 29.22 33.6216 29.0867 33.6216 28.9C33.5949 28.98 33.4616 29.1267 33.2216 29.34C32.9816 29.5533 32.6482 29.7667 32.2216 29.98C31.7682 30.22 31.2349 30.42 30.6216 30.58C30.0082 30.7667 29.3149 30.86 28.5416 30.86C27.4216 30.86 26.3682 30.66 25.3816 30.26C24.3949 29.8333 23.5416 29.26 22.8216 28.54C22.1016 27.82 21.5282 26.9933 21.1016 26.06C20.7016 25.1 20.5016 24.0867 20.5016 23.02C20.5016 21.98 20.7016 20.98 21.1016 20.02C21.5282 19.06 22.1016 18.22 22.8216 17.5C23.5416 16.78 24.3949 16.2067 25.3816 15.78C26.3682 15.3533 27.4216 15.14 28.5416 15.14C30.0082 15.14 31.1682 15.4067 32.0216 15.94C32.8749 16.4467 33.4082 16.9267 33.6216 17.38C33.6482 17.1133 33.6749 16.82 33.7016 16.5C33.7549 16.1533 33.7816 15.82 33.7816 15.5H36.5416V27.34H39.5816V30.5ZM28.5416 18.38C27.8216 18.38 27.1549 18.5133 26.5416 18.78C25.9282 19.02 25.4216 19.3667 25.0216 19.82C24.6482 20.22 24.3549 20.6867 24.1416 21.22C23.9549 21.7533 23.8616 22.34 23.8616 22.98C23.8616 23.7267 24.0082 24.42 24.3016 25.06C24.6216 25.7 25.0482 26.2333 25.5816 26.66C25.9549 26.9533 26.3949 27.1933 26.9016 27.38C27.4082 27.54 27.9549 27.62 28.5416 27.62C29.2082 27.62 29.8082 27.5133 30.3416 27.3C30.9016 27.0867 31.3816 26.7933 31.7816 26.42C32.2349 25.9933 32.5816 25.4867 32.8216 24.9C33.0882 24.3133 33.2216 23.6733 33.2216 22.98C33.2216 22.2867 33.0882 21.6467 32.8216 21.06C32.5816 20.4733 32.2482 19.98 31.8216 19.58C31.3949 19.2067 30.9016 18.9133 30.3416 18.7C29.8082 18.4867 29.2082 18.38 28.5416 18.38ZM59.6166 18.66C58.4699 20.82 57.3099 22.9533 56.1366 25.06C54.9899 27.1667 53.8432 29.2867 52.6966 31.42C51.5232 29.2867 50.3632 27.1667 49.2166 25.06C48.0699 22.9267 46.9099 20.7933 45.7366 18.66H42.3766V15.5H51.2566V18.66H49.1766C49.8699 19.8333 50.5366 21.0067 51.1766 22.18C51.8166 23.3533 52.3232 24.5267 52.6966 25.7C53.0699 24.5267 53.5632 23.3533 54.1766 22.18C54.8166 21.0067 55.4832 19.8333 56.1766 18.66H53.7766V15.5H62.9366V18.66H59.6166ZM73.7359 18.38C72.9893 18.38 72.3093 18.5133 71.6959 18.78C71.1093 19.02 70.6026 19.3667 70.1759 19.82C69.8559 20.1933 69.5893 20.62 69.3759 21.1C69.1893 21.58 69.0826 22.1 69.0559 22.66C70.3093 22.2067 71.5493 21.7533 72.7759 21.3C74.0293 20.82 75.2826 20.3533 76.5359 19.9C76.1626 19.4467 75.7359 19.0867 75.2559 18.82C74.8026 18.5267 74.2959 18.38 73.7359 18.38ZM78.8159 28.74C78.1493 29.4067 77.3893 29.9267 76.5359 30.3C75.6826 30.6733 74.7493 30.86 73.7359 30.86C72.6159 30.86 71.5626 30.66 70.5759 30.26C69.6159 29.8333 68.7759 29.26 68.0559 28.54C67.3359 27.82 66.7626 26.9933 66.3359 26.06C65.9359 25.1 65.7359 24.0733 65.7359 22.98C65.7359 21.9133 65.9359 20.9 66.3359 19.94C66.7626 18.98 67.3359 18.14 68.0559 17.42C68.7759 16.7267 69.6159 16.18 70.5759 15.78C71.5626 15.3533 72.6159 15.14 73.7359 15.14C74.5626 15.14 75.3493 15.3133 76.0959 15.66C76.8693 15.98 77.5626 16.4333 78.1759 17.02C78.7626 17.6067 79.2826 18.3133 79.7359 19.14C80.1893 19.94 80.5359 20.82 80.7759 21.78C78.9626 22.4467 77.1493 23.1133 75.3359 23.78C73.5493 24.4467 71.7493 25.1133 69.9359 25.78C70.3359 26.34 70.8559 26.7933 71.4959 27.14C72.1626 27.46 72.9093 27.62 73.7359 27.62C74.3493 27.62 74.9093 27.5133 75.4159 27.3C75.9226 27.0867 76.3759 26.7667 76.7759 26.34L78.8159 28.74ZM106.896 40.5H98.0159V37.34H101.616C102.176 36.1933 102.736 35.0467 103.296 33.9C103.883 32.7533 104.469 31.62 105.056 30.5C104.043 28.5 103.043 26.5267 102.056 24.58C101.096 22.6333 100.109 20.66 99.0959 18.66H95.7359V15.5H104.616V18.66H102.496C103.269 20.1267 104.043 21.6067 104.816 23.1C105.589 24.5667 106.229 26.0467 106.736 27.54C107.243 26.0467 107.869 24.5667 108.616 23.1C109.389 21.6067 110.163 20.1267 110.936 18.66H108.456V15.5H117.616V18.66H114.336C112.763 21.8067 111.189 24.9267 109.616 28.02C108.069 31.0867 106.509 34.1933 104.936 37.34H106.896V40.5ZM134.143 28.54C133.423 29.26 132.57 29.8333 131.583 30.26C130.597 30.66 129.543 30.86 128.423 30.86C127.303 30.86 126.25 30.66 125.263 30.26C124.303 29.8333 123.463 29.26 122.743 28.54C122.023 27.82 121.45 26.9933 121.023 26.06C120.623 25.1267 120.423 24.1 120.423 22.98C120.423 21.9133 120.623 20.9 121.023 19.94C121.45 18.98 122.023 18.14 122.743 17.42C123.463 16.7267 124.303 16.18 125.263 15.78C126.25 15.3533 127.303 15.14 128.423 15.14C129.543 15.14 130.597 15.3533 131.583 15.78C132.57 16.18 133.423 16.7267 134.143 17.42C134.863 18.14 135.423 18.98 135.823 19.94C136.25 20.9 136.463 21.9133 136.463 22.98C136.463 24.0733 136.25 25.1 135.823 26.06C135.423 26.9933 134.863 27.82 134.143 28.54ZM125.103 26.26C125.503 26.6867 125.983 27.02 126.543 27.26C127.103 27.5 127.703 27.62 128.343 27.62C128.983 27.62 129.583 27.5 130.143 27.26C130.703 27.02 131.197 26.6867 131.623 26.26C132.05 25.86 132.383 25.38 132.623 24.82C132.863 24.26 132.983 23.66 132.983 23.02C132.983 22.38 132.863 21.78 132.623 21.22C132.383 20.66 132.05 20.1667 131.623 19.74C131.197 19.3133 130.703 18.98 130.143 18.74C129.583 18.5 128.983 18.38 128.343 18.38C127.703 18.38 127.103 18.5 126.543 18.74C125.983 18.98 125.503 19.3133 125.103 19.74C124.677 20.1667 124.343 20.66 124.103 21.22C123.863 21.78 123.743 22.38 123.743 23.02C123.743 23.66 123.863 24.26 124.103 24.82C124.343 25.38 124.677 25.86 125.103 26.26ZM153.572 26.66C153.038 27.94 152.172 28.9667 150.972 29.74C149.798 30.4867 148.492 30.86 147.052 30.86C145.478 30.86 144.238 30.4467 143.332 29.62C142.425 28.7933 141.945 27.7133 141.892 26.38V18.66H139.252V15.5H145.212V24.86C145.265 25.58 145.518 26.2067 145.972 26.74C146.452 27.2467 147.198 27.5267 148.212 27.58C148.905 27.58 149.558 27.46 150.172 27.22C150.812 26.98 151.372 26.6467 151.852 26.22C152.332 25.7933 152.718 25.2867 153.012 24.7C153.305 24.1133 153.452 23.4733 153.452 22.78V18.66H150.812V15.5H156.772V27.7H159.252V30.5H153.452V28.46L153.572 26.66ZM170.944 30.5H162.064V27.34H165.104V18.66H162.464V15.5H168.024L168.184 17.58C168.237 18.22 168.251 18.5133 168.224 18.46C168.224 18.4067 168.251 18.7 168.304 19.34C168.624 18.6733 169.024 18.0867 169.504 17.58C170.011 17.0467 170.531 16.6067 171.064 16.26C171.624 15.8867 172.157 15.6067 172.664 15.42C173.197 15.2333 173.664 15.14 174.064 15.14L173.824 18.42C173.157 18.42 172.531 18.5 171.944 18.66C171.384 18.82 170.891 19.0467 170.464 19.34C169.824 19.7667 169.317 20.3133 168.944 20.98C168.597 21.6467 168.424 22.3933 168.424 23.22V27.34H170.944V30.5ZM198.501 29.02C198.128 29.5267 197.608 29.9533 196.941 30.3C196.274 30.6467 195.408 30.82 194.341 30.82C193.354 30.82 192.408 30.7 191.501 30.46C190.594 30.1933 189.874 29.7667 189.341 29.18V25.7H192.301V27.26C192.621 27.3933 192.928 27.4867 193.221 27.54C193.541 27.5667 193.928 27.58 194.381 27.58C194.594 27.58 194.808 27.5533 195.021 27.5C195.261 27.4467 195.474 27.3533 195.661 27.22C195.794 27.1133 195.901 26.98 195.981 26.82C196.088 26.6333 196.141 26.4067 196.141 26.14C196.141 25.66 195.994 25.3 195.701 25.06C195.434 24.7933 195.061 24.58 194.581 24.42C194.128 24.2333 193.621 24.06 193.061 23.9C192.501 23.7133 191.968 23.46 191.461 23.14C190.981 22.8467 190.581 22.42 190.261 21.86C189.941 21.3 189.781 20.5533 189.781 19.62C189.781 18.7933 189.941 18.1 190.261 17.54C190.581 16.98 190.981 16.5267 191.461 16.18C191.941 15.8067 192.461 15.54 193.021 15.38C193.581 15.22 194.088 15.14 194.541 15.14C194.808 15.14 195.128 15.1667 195.501 15.22C195.901 15.2733 196.301 15.3667 196.701 15.5C197.101 15.6333 197.488 15.8067 197.861 16.02C198.261 16.2333 198.608 16.5 198.901 16.82V20.3H195.941V18.58C195.728 18.5267 195.528 18.4867 195.341 18.46C195.154 18.4067 194.954 18.38 194.741 18.38C194.448 18.38 194.194 18.42 193.981 18.5C193.768 18.5533 193.594 18.6333 193.461 18.74C193.328 18.8733 193.234 19.0333 193.181 19.22C193.128 19.38 193.114 19.5667 193.141 19.78C193.194 20.1 193.394 20.3667 193.741 20.58C194.088 20.7667 194.501 20.9533 194.981 21.14C195.434 21.3267 195.928 21.54 196.461 21.78C196.994 22.02 197.488 22.3133 197.941 22.66C198.394 23.0333 198.768 23.5 199.061 24.06C199.354 24.5933 199.501 25.2733 199.501 26.1C199.501 26.4733 199.421 26.9267 199.261 27.46C199.128 27.9933 198.874 28.5133 198.501 29.02ZM211.022 30.5H202.142V27.34H204.942V18.66H202.142V15.5H208.262V27.34H211.022V30.5ZM208.702 9.7C208.702 10.3133 208.489 10.82 208.062 11.22C207.636 11.5933 207.169 11.78 206.662 11.78C206.129 11.78 205.649 11.5933 205.222 11.22C204.796 10.82 204.582 10.3133 204.582 9.7C204.582 9.08666 204.796 8.58 205.222 8.18C205.649 7.78 206.129 7.58 206.662 7.58C207.169 7.58 207.636 7.78 208.062 8.18C208.489 8.58 208.702 9.08666 208.702 9.7ZM223.502 30.5H217.182V18.74H213.822V15.5H217.182V5.74H220.502V15.5H224.422V18.74H220.502V27.34H223.502V30.5ZM231.86 28.38C231.86 28.9933 231.647 29.5 231.22 29.9C230.794 30.3 230.327 30.5 229.82 30.5C229.287 30.5 228.807 30.3 228.38 29.9C227.954 29.5 227.74 28.9933 227.74 28.38C227.74 27.7667 227.954 27.2733 228.38 26.9C228.807 26.5 229.287 26.3 229.82 26.3C230.327 26.3 230.794 26.5 231.22 26.9C231.647 27.2733 231.86 27.7667 231.86 28.38ZM231.46 23.86H228.14V0.499998H231.46V23.86Z" fill="black"/>
<path d="M7.936 59.428C7.65867 60.036 7.392 60.644 7.136 61.252C6.88 61.8493 6.62933 62.436 6.384 63.012C5.648 61.252 4.90667 59.5133 4.16 57.796C3.424 56.068 2.688 54.324 1.952 52.564H0.56V51.3H4.432V52.564H3.28C3.78133 53.7267 4.272 54.8893 4.752 56.052C5.24267 57.2147 5.73867 58.3773 6.24 59.54L6.384 60.068C6.512 59.6947 6.68267 59.2467 6.896 58.724C7.10933 58.1907 7.32267 57.684 7.536 57.204C7.73867 56.7347 7.936 56.2653 8.128 55.796C8.32 55.3267 8.512 54.8627 8.704 54.404C8.576 54.0947 8.44267 53.7907 8.304 53.492C8.176 53.1827 8.048 52.8733 7.92 52.564H6.448V51.3H10.32V52.564H9.248C9.74933 53.7267 10.24 54.8893 10.72 56.052C11.2107 57.2147 11.7067 58.3773 12.208 59.54L12.352 60.068L12.496 59.54C12.9973 58.3773 13.488 57.22 13.968 56.068C14.4587 54.9053 14.9493 53.7373 15.44 52.564H14.416V51.3H18.288V52.564H16.784C16.048 54.324 15.3067 56.068 14.56 57.796C13.824 59.5133 13.088 61.252 12.352 63.012L9.52 56.34L9.36 55.78C9.21067 56.2707 9.00267 56.852 8.736 57.524C8.48 58.1853 8.21333 58.82 7.936 59.428ZM22.6038 57.652C22.3051 57.652 22.0331 57.7053 21.7878 57.812C21.5531 57.908 21.3504 58.0467 21.1798 58.228C21.0518 58.3773 20.9451 58.548 20.8598 58.74C20.7851 58.932 20.7424 59.14 20.7318 59.364C21.2331 59.1827 21.7291 59.0013 22.2198 58.82C22.7211 58.628 23.2224 58.4413 23.7238 58.26C23.5744 58.0787 23.4038 57.9347 23.2118 57.828C23.0304 57.7107 22.8278 57.652 22.6038 57.652ZM24.6358 61.796C24.3691 62.0627 24.0651 62.2707 23.7238 62.42C23.3824 62.5693 23.0091 62.644 22.6038 62.644C22.1558 62.644 21.7344 62.564 21.3398 62.404C20.9558 62.2333 20.6198 62.004 20.3318 61.716C20.0438 61.428 19.8144 61.0973 19.6438 60.724C19.4838 60.34 19.4038 59.9293 19.4038 59.492C19.4038 59.0653 19.4838 58.66 19.6438 58.276C19.8144 57.892 20.0438 57.556 20.3318 57.268C20.6198 56.9907 20.9558 56.772 21.3398 56.612C21.7344 56.4413 22.1558 56.356 22.6038 56.356C22.9344 56.356 23.2491 56.4253 23.5477 56.564C23.8571 56.692 24.1344 56.8733 24.3798 57.108C24.6144 57.3427 24.8224 57.6253 25.0038 57.956C25.1851 58.276 25.3238 58.628 25.4198 59.012C24.6944 59.2787 23.9691 59.5453 23.2438 59.812C22.5291 60.0787 21.8091 60.3453 21.0838 60.612C21.2438 60.836 21.4518 61.0173 21.7078 61.156C21.9744 61.284 22.2731 61.348 22.6038 61.348C22.8491 61.348 23.0731 61.3053 23.2758 61.22C23.4784 61.1347 23.6598 61.0067 23.8198 60.836L24.6358 61.796ZM37.6438 58.66L35.4198 62.868C34.9824 62.0147 34.5504 61.1667 34.1238 60.324C33.6971 59.4707 33.2651 58.6173 32.8278 57.764H31.4038V56.5H34.7158V57.764H34.1558C34.3904 58.2333 34.6464 58.74 34.9238 59.284C35.2011 59.828 35.3931 60.26 35.4998 60.58C35.8198 59.9827 36.0864 59.4867 36.2998 59.092C36.5131 58.6867 36.7424 58.2653 36.9878 57.828L36.9398 57.764H35.8678V56.5H39.4198V57.764H38.5078C38.7424 58.2333 38.9718 58.7027 39.1958 59.172C39.4198 59.6307 39.6118 60.1 39.7718 60.58C39.9318 60.1 40.1184 59.6307 40.3318 59.172C40.5558 58.7027 40.7904 58.2333 41.0358 57.764H40.1398V56.5H43.5638V57.764H42.3478C41.9211 58.628 41.4891 59.4813 41.0518 60.324C40.6251 61.1667 40.1984 62.0147 39.7718 62.868L37.6438 58.66ZM48.237 62.5H44.685V61.236H45.805V57.764H44.685V56.5H47.133V61.236H48.237V62.5ZM47.309 54.18C47.309 54.4253 47.2237 54.628 47.053 54.788C46.8823 54.9373 46.6957 55.012 46.493 55.012C46.2797 55.012 46.0877 54.9373 45.917 54.788C45.7463 54.628 45.661 54.4253 45.661 54.18C45.661 53.9347 45.7463 53.732 45.917 53.572C46.0877 53.412 46.2797 53.332 46.493 53.332C46.6957 53.332 46.8823 53.412 47.053 53.572C47.2237 53.732 47.309 53.9347 47.309 54.18ZM52.9089 62.5H49.3569V61.236H50.5729V51.764H49.5169V50.5H51.9009V61.236H52.9089V62.5ZM57.5807 62.5H54.0288V61.236H55.2448V51.764H54.1888V50.5H56.5728V61.236H57.5807V62.5ZM67.3535 61.908C67.2042 62.1107 66.9962 62.2813 66.7295 62.42C66.4628 62.5587 66.1162 62.628 65.6895 62.628C65.2948 62.628 64.9162 62.58 64.5535 62.484C64.1908 62.3773 63.9028 62.2067 63.6895 61.972V60.58H64.8735V61.204C65.0015 61.2573 65.1242 61.2947 65.2415 61.316C65.3695 61.3267 65.5242 61.332 65.7055 61.332C65.7908 61.332 65.8762 61.3213 65.9615 61.3C66.0575 61.2787 66.1428 61.2413 66.2175 61.188C66.2708 61.1453 66.3135 61.092 66.3455 61.028C66.3882 60.9533 66.4095 60.8627 66.4095 60.756C66.4095 60.564 66.3508 60.42 66.2335 60.324C66.1268 60.2173 65.9775 60.132 65.7855 60.068C65.6042 59.9933 65.4015 59.924 65.1775 59.86C64.9535 59.7853 64.7402 59.684 64.5375 59.556C64.3455 59.4387 64.1855 59.268 64.0575 59.044C63.9295 58.82 63.8655 58.5213 63.8655 58.148C63.8655 57.8173 63.9295 57.54 64.0575 57.316C64.1855 57.092 64.3455 56.9107 64.5375 56.772C64.7295 56.6227 64.9375 56.516 65.1615 56.452C65.3855 56.388 65.5882 56.356 65.7695 56.356C65.8762 56.356 66.0042 56.3667 66.1535 56.388C66.3135 56.4093 66.4735 56.4467 66.6335 56.5C66.7935 56.5533 66.9482 56.6227 67.0975 56.708C67.2575 56.7933 67.3962 56.9 67.5135 57.028V58.42H66.3295V57.732C66.2442 57.7107 66.1642 57.6947 66.0895 57.684C66.0148 57.6627 65.9348 57.652 65.8495 57.652C65.7322 57.652 65.6308 57.668 65.5455 57.7C65.4602 57.7213 65.3908 57.7533 65.3375 57.796C65.2842 57.8493 65.2468 57.9133 65.2255 57.988C65.2042 58.052 65.1988 58.1267 65.2095 58.212C65.2308 58.34 65.3108 58.4467 65.4495 58.532C65.5882 58.6067 65.7535 58.6813 65.9455 58.756C66.1268 58.8307 66.3242 58.916 66.5375 59.012C66.7508 59.108 66.9482 59.2253 67.1295 59.364C67.3108 59.5133 67.4602 59.7 67.5775 59.924C67.6948 60.1373 67.7535 60.4093 67.7535 60.74C67.7535 60.8893 67.7215 61.0707 67.6575 61.284C67.6042 61.4973 67.5028 61.7053 67.3535 61.908ZM72.01 57.652C71.7113 57.652 71.4393 57.7053 71.194 57.812C70.9593 57.908 70.7567 58.0467 70.586 58.228C70.458 58.3773 70.3513 58.548 70.266 58.74C70.1913 58.932 70.1487 59.14 70.138 59.364C70.6393 59.1827 71.1353 59.0013 71.626 58.82C72.1273 58.628 72.6287 58.4413 73.13 58.26C72.9807 58.0787 72.81 57.9347 72.618 57.828C72.4367 57.7107 72.234 57.652 72.01 57.652ZM74.042 61.796C73.7753 62.0627 73.4713 62.2707 73.13 62.42C72.7887 62.5693 72.4153 62.644 72.01 62.644C71.562 62.644 71.1407 62.564 70.746 62.404C70.362 62.2333 70.026 62.004 69.738 61.716C69.45 61.428 69.2207 61.0973 69.05 60.724C68.89 60.34 68.81 59.9293 68.81 59.492C68.81 59.0653 68.89 58.66 69.05 58.276C69.2207 57.892 69.45 57.556 69.738 57.268C70.026 56.9907 70.362 56.772 70.746 56.612C71.1407 56.4413 71.562 56.356 72.01 56.356C72.3407 56.356 72.6553 56.4253 72.954 56.564C73.2633 56.692 73.5407 56.8733 73.786 57.108C74.0207 57.3427 74.2287 57.6253 74.41 57.956C74.5913 58.276 74.73 58.628 74.826 59.012C74.1007 59.2787 73.3753 59.5453 72.65 59.812C71.9353 60.0787 71.2153 60.3453 70.49 60.612C70.65 60.836 70.858 61.0173 71.114 61.156C71.3807 61.284 71.6793 61.348 72.01 61.348C72.2553 61.348 72.4793 61.3053 72.682 61.22C72.8847 61.1347 73.066 61.0067 73.226 60.836L74.042 61.796ZM79.5651 62.5H76.0131V61.236H77.2291V57.764H76.1731V56.5H78.3971V56.644C78.4185 56.9 78.4345 57.1347 78.4451 57.348C78.4665 57.5507 78.4878 57.78 78.5091 58.036C78.7225 57.524 79.0638 57.1187 79.5331 56.82C80.0131 56.5107 80.5411 56.356 81.1171 56.356C81.7465 56.356 82.2425 56.5213 82.6051 56.852C82.9678 57.1827 83.1598 57.6147 83.1811 58.148V61.236H84.1731V62.5H80.6211V61.236H81.8531V58.756C81.8318 58.468 81.7251 58.2227 81.5331 58.02C81.3518 57.8067 81.0585 57.6893 80.6531 57.668C80.3758 57.668 80.1091 57.716 79.8531 57.812C79.6078 57.908 79.3891 58.0413 79.1971 58.212C79.0051 58.3827 78.8505 58.5853 78.7331 58.82C78.6158 59.0547 78.5571 59.3107 78.5571 59.588V61.236H79.5651V62.5ZM92.9264 62.5H90.5424V62.18C90.5424 62.1053 90.5424 62.052 90.5424 62.02C90.5424 61.988 90.5424 61.9347 90.5424 61.86C90.5317 61.892 90.4784 61.9507 90.3824 62.036C90.2864 62.1213 90.153 62.2067 89.9824 62.292C89.801 62.388 89.5877 62.468 89.3424 62.532C89.097 62.6067 88.8197 62.644 88.5104 62.644C88.0624 62.644 87.641 62.564 87.2464 62.404C86.8517 62.2333 86.5104 62.004 86.2224 61.716C85.9344 61.428 85.705 61.092 85.5344 60.708C85.3744 60.324 85.2944 59.9187 85.2944 59.492C85.2944 59.0653 85.3744 58.6653 85.5344 58.292C85.705 57.908 85.9344 57.572 86.2224 57.284C86.5104 56.996 86.8517 56.772 87.2464 56.612C87.641 56.4413 88.0624 56.356 88.5104 56.356C88.777 56.356 89.0277 56.3933 89.2624 56.468C89.5077 56.5427 89.721 56.628 89.9024 56.724C90.0837 56.82 90.2117 56.9 90.2864 56.964C90.361 57.0173 90.409 57.06 90.4304 57.092C90.409 57.0067 90.393 56.9 90.3824 56.772C90.3824 56.6333 90.3824 56.5267 90.3824 56.452V51.764H89.3264V50.5H91.7104V61.236H92.9264V62.5ZM88.5104 57.652C88.233 57.652 87.977 57.7 87.7424 57.796C87.5077 57.892 87.305 58.02 87.1344 58.18C86.985 58.3507 86.8624 58.548 86.7664 58.772C86.681 58.9853 86.6384 59.2253 86.6384 59.492C86.6384 59.7693 86.6917 60.0307 86.7984 60.276C86.905 60.5213 87.049 60.724 87.2304 60.884C87.3904 61.0333 87.577 61.1507 87.7904 61.236C88.0144 61.3107 88.2544 61.348 88.5104 61.348C88.7664 61.348 89.001 61.3107 89.2144 61.236C89.4277 61.1507 89.6197 61.0333 89.7904 60.884C89.9717 60.724 90.1157 60.5213 90.2224 60.276C90.329 60.0307 90.3824 59.7693 90.3824 59.492C90.3824 59.1933 90.3237 58.9213 90.2064 58.676C90.0997 58.4307 89.9504 58.228 89.7584 58.068C89.5984 57.94 89.4117 57.8387 89.1984 57.764C88.985 57.6893 88.7557 57.652 88.5104 57.652ZM103.305 66.5H99.7533V65.236H101.193C101.417 64.7773 101.641 64.3187 101.865 63.86C102.1 63.4013 102.335 62.948 102.569 62.5C102.164 61.7 101.764 60.9107 101.369 60.132C100.985 59.3533 100.591 58.564 100.185 57.764H98.8413V56.5H102.393V57.764H101.545C101.855 58.3507 102.164 58.9427 102.473 59.54C102.783 60.1267 103.039 60.7187 103.241 61.316C103.444 60.7187 103.695 60.1267 103.993 59.54C104.303 58.9427 104.612 58.3507 104.921 57.764H103.929V56.5H107.593V57.764H106.281C105.652 59.0227 105.023 60.2707 104.393 61.508C103.775 62.7347 103.151 63.9773 102.521 65.236H103.305V66.5ZM114.204 61.716C113.916 62.004 113.575 62.2333 113.18 62.404C112.786 62.564 112.364 62.644 111.916 62.644C111.468 62.644 111.047 62.564 110.652 62.404C110.268 62.2333 109.932 62.004 109.644 61.716C109.356 61.428 109.127 61.0973 108.956 60.724C108.796 60.3507 108.716 59.94 108.716 59.492C108.716 59.0653 108.796 58.66 108.956 58.276C109.127 57.892 109.356 57.556 109.644 57.268C109.932 56.9907 110.268 56.772 110.652 56.612C111.047 56.4413 111.468 56.356 111.916 56.356C112.364 56.356 112.786 56.4413 113.18 56.612C113.575 56.772 113.916 56.9907 114.204 57.268C114.492 57.556 114.716 57.892 114.876 58.276C115.047 58.66 115.132 59.0653 115.132 59.492C115.132 59.9293 115.047 60.34 114.876 60.724C114.716 61.0973 114.492 61.428 114.204 61.716ZM110.588 60.804C110.748 60.9747 110.94 61.108 111.164 61.204C111.388 61.3 111.628 61.348 111.884 61.348C112.14 61.348 112.38 61.3 112.604 61.204C112.828 61.108 113.026 60.9747 113.196 60.804C113.367 60.644 113.5 60.452 113.596 60.228C113.692 60.004 113.74 59.764 113.74 59.508C113.74 59.252 113.692 59.012 113.596 58.788C113.5 58.564 113.367 58.3667 113.196 58.196C113.026 58.0253 112.828 57.892 112.604 57.796C112.38 57.7 112.14 57.652 111.884 57.652C111.628 57.652 111.388 57.7 111.164 57.796C110.94 57.892 110.748 58.0253 110.588 58.196C110.418 58.3667 110.284 58.564 110.188 58.788C110.092 59.012 110.044 59.252 110.044 59.508C110.044 59.764 110.092 60.004 110.188 60.228C110.284 60.452 110.418 60.644 110.588 60.804ZM121.976 60.964C121.762 61.476 121.416 61.8867 120.936 62.196C120.466 62.4947 119.944 62.644 119.368 62.644C118.738 62.644 118.242 62.4787 117.88 62.148C117.517 61.8173 117.325 61.3853 117.304 60.852V57.764H116.248V56.5H118.632V60.244C118.653 60.532 118.754 60.7827 118.936 60.996C119.128 61.1987 119.426 61.3107 119.832 61.332C120.109 61.332 120.37 61.284 120.616 61.188C120.872 61.092 121.096 60.9587 121.288 60.788C121.48 60.6173 121.634 60.4147 121.752 60.18C121.869 59.9453 121.928 59.6893 121.928 59.412V57.764H120.872V56.5H123.256V61.38H124.248V62.5H121.928V61.684L121.976 60.964ZM137.801 62.5H135.417V62.18C135.417 62.1053 135.417 62.052 135.417 62.02C135.417 61.988 135.417 61.9347 135.417 61.86C135.407 61.892 135.353 61.9507 135.257 62.036C135.161 62.1213 135.028 62.2067 134.857 62.292C134.676 62.388 134.463 62.468 134.217 62.532C133.972 62.6067 133.695 62.644 133.385 62.644C132.937 62.644 132.516 62.564 132.121 62.404C131.727 62.2333 131.385 62.004 131.097 61.716C130.809 61.428 130.58 61.0973 130.409 60.724C130.249 60.34 130.169 59.9347 130.169 59.508C130.169 59.092 130.249 58.692 130.409 58.308C130.58 57.924 130.809 57.588 131.097 57.3C131.385 57.012 131.727 56.7827 132.121 56.612C132.516 56.4413 132.937 56.356 133.385 56.356C133.972 56.356 134.436 56.4627 134.777 56.676C135.119 56.8787 135.332 57.0707 135.417 57.252C135.428 57.1453 135.439 57.028 135.449 56.9C135.471 56.7613 135.481 56.628 135.481 56.5H136.585V61.236H137.801V62.5ZM133.385 57.652C133.097 57.652 132.831 57.7053 132.585 57.812C132.34 57.908 132.137 58.0467 131.977 58.228C131.828 58.388 131.711 58.5747 131.625 58.788C131.551 59.0013 131.513 59.236 131.513 59.492C131.513 59.7907 131.572 60.068 131.689 60.324C131.817 60.58 131.988 60.7933 132.201 60.964C132.351 61.0813 132.527 61.1773 132.729 61.252C132.932 61.316 133.151 61.348 133.385 61.348C133.652 61.348 133.892 61.3053 134.105 61.22C134.329 61.1347 134.521 61.0173 134.681 60.868C134.863 60.6973 135.001 60.4947 135.097 60.26C135.204 60.0253 135.257 59.7693 135.257 59.492C135.257 59.2147 135.204 58.9587 135.097 58.724C135.001 58.4893 134.868 58.292 134.697 58.132C134.527 57.9827 134.329 57.8653 134.105 57.78C133.892 57.6947 133.652 57.652 133.385 57.652ZM142.471 62.5H138.919V61.236H140.135V57.764H139.079V56.5H141.303V56.644C141.325 56.9 141.341 57.1347 141.351 57.348C141.373 57.5507 141.394 57.78 141.415 58.036C141.629 57.524 141.97 57.1187 142.439 56.82C142.919 56.5107 143.447 56.356 144.023 56.356C144.653 56.356 145.149 56.5213 145.511 56.852C145.874 57.1827 146.066 57.6147 146.087 58.148V61.236H147.079V62.5H143.527V61.236H144.759V58.756C144.738 58.468 144.631 58.2227 144.439 58.02C144.258 57.8067 143.965 57.6893 143.559 57.668C143.282 57.668 143.015 57.716 142.759 57.812C142.514 57.908 142.295 58.0413 142.103 58.212C141.911 58.3827 141.757 58.5853 141.639 58.82C141.522 59.0547 141.463 59.3107 141.463 59.588V61.236H142.471V62.5ZM156.549 62.5H152.998V61.236H154.118V57.764H152.998V56.5H155.446V61.236H156.549V62.5ZM155.622 54.18C155.622 54.4253 155.536 54.628 155.366 54.788C155.195 54.9373 155.008 55.012 154.806 55.012C154.592 55.012 154.4 54.9373 154.23 54.788C154.059 54.628 153.974 54.4253 153.974 54.18C153.974 53.9347 154.059 53.732 154.23 53.572C154.4 53.412 154.592 53.332 154.806 53.332C155.008 53.332 155.195 53.412 155.366 53.572C155.536 53.732 155.622 53.9347 155.622 54.18ZM161.221 62.5H157.669V61.236H158.885V57.764H157.829V56.5H160.053V56.644C160.075 56.9 160.091 57.1347 160.101 57.348C160.123 57.5507 160.144 57.78 160.165 58.036C160.379 57.524 160.72 57.1187 161.189 56.82C161.669 56.5107 162.197 56.356 162.773 56.356C163.403 56.356 163.899 56.5213 164.261 56.852C164.624 57.1827 164.816 57.6147 164.837 58.148V61.236H165.829V62.5H162.277V61.236H163.509V58.756C163.488 58.468 163.381 58.2227 163.189 58.02C163.008 57.8067 162.715 57.6893 162.309 57.668C162.032 57.668 161.765 57.716 161.509 57.812C161.264 57.908 161.045 58.0413 160.853 58.212C160.661 58.3827 160.507 58.5853 160.389 58.82C160.272 59.0547 160.213 59.3107 160.213 59.588V61.236H161.221V62.5ZM173.847 57.764C173.388 58.628 172.924 59.4813 172.455 60.324C171.996 61.1667 171.537 62.0147 171.079 62.868C170.609 62.0147 170.145 61.1667 169.687 60.324C169.228 59.4707 168.764 58.6173 168.295 57.764H166.951V56.5H170.503V57.764H169.671C169.948 58.2333 170.215 58.7027 170.471 59.172C170.727 59.6413 170.929 60.1107 171.079 60.58C171.228 60.1107 171.425 59.6413 171.671 59.172C171.927 58.7027 172.193 58.2333 172.471 57.764H171.511V56.5H175.175V57.764H173.847ZM179.846 62.5H176.294V61.236H177.414V57.764H176.294V56.5H178.742V61.236H179.846V62.5ZM178.918 54.18C178.918 54.4253 178.833 54.628 178.662 54.788C178.492 54.9373 178.305 55.012 178.102 55.012C177.889 55.012 177.697 54.9373 177.526 54.788C177.356 54.628 177.27 54.4253 177.27 54.18C177.27 53.9347 177.356 53.732 177.526 53.572C177.697 53.412 177.889 53.332 178.102 53.332C178.305 53.332 178.492 53.412 178.662 53.572C178.833 53.732 178.918 53.9347 178.918 54.18ZM184.838 62.5H182.31V57.796H180.966V56.5H182.31V52.596H183.638V56.5H185.206V57.796H183.638V61.236H184.838V62.5ZM189.526 57.652C189.227 57.652 188.955 57.7053 188.71 57.812C188.475 57.908 188.272 58.0467 188.102 58.228C187.974 58.3773 187.867 58.548 187.782 58.74C187.707 58.932 187.664 59.14 187.654 59.364C188.155 59.1827 188.651 59.0013 189.142 58.82C189.643 58.628 190.144 58.4413 190.646 58.26C190.496 58.0787 190.326 57.9347 190.134 57.828C189.952 57.7107 189.75 57.652 189.526 57.652ZM191.558 61.796C191.291 62.0627 190.987 62.2707 190.646 62.42C190.304 62.5693 189.931 62.644 189.526 62.644C189.078 62.644 188.656 62.564 188.262 62.404C187.878 62.2333 187.542 62.004 187.254 61.716C186.966 61.428 186.736 61.0973 186.566 60.724C186.406 60.34 186.326 59.9293 186.326 59.492C186.326 59.0653 186.406 58.66 186.566 58.276C186.736 57.892 186.966 57.556 187.254 57.268C187.542 56.9907 187.878 56.772 188.262 56.612C188.656 56.4413 189.078 56.356 189.526 56.356C189.856 56.356 190.171 56.4253 190.47 56.564C190.779 56.692 191.056 56.8733 191.302 57.108C191.536 57.3427 191.744 57.6253 191.926 57.956C192.107 58.276 192.246 58.628 192.342 59.012C191.616 59.2787 190.891 59.5453 190.166 59.812C189.451 60.0787 188.731 60.3453 188.006 60.612C188.166 60.836 188.374 61.0173 188.63 61.156C188.896 61.284 189.195 61.348 189.526 61.348C189.771 61.348 189.995 61.3053 190.198 61.22C190.4 61.1347 190.582 61.0067 190.742 60.836L191.558 61.796Z" fill="black"/>
</svg>
