<svg width="120" height="60" viewBox="0 0 120 60" fill="none" xmlns="http://www.w3.org/2000/svg">
<path d="M12.808 32.0962V59.2357H10.3633V59.7134H19.8231V59.2357H17.219V32.8157C15.6908 32.7379 14.2129 32.4913 12.808 32.0962Z" fill="url(#paint0_radial_105_198)"/>
<path d="M26.751 30.9687V51.4013C26.751 53.742 27.4419 55.6529 28.8237 57.1338C29.6209 58.0414 30.9229 58.758 32.7299 59.2834C34.5899 59.7611 36.9549 60 39.8247 60C42.7477 60 45.4315 59.1162 47.8762 57.3487C50.3209 55.5334 52.0215 53.5987 52.9781 51.5446V54.6258L53.0578 55.8439C53.111 56.7038 53.6956 57.5637 54.8116 58.4236C55.9808 59.2834 57.6549 59.7134 59.8338 59.7134H64.6966V59.1401H62.2253L61.3485 58.9968C60.7107 58.949 60.073 58.5669 59.4352 57.8503C58.8506 57.086 58.5583 56.0111 58.5583 54.6258V23.8853H52.9781V49.6099C52.7655 51.5685 51.3306 53.6943 48.6734 55.9873C46.0693 58.2803 43.0931 59.4267 39.745 59.4267C38.0975 59.4267 36.7423 59.1879 35.6794 58.7102C33.4473 57.6592 32.3313 55.2468 32.3313 51.4729V26.9038C30.7943 28.5679 28.8987 29.9548 26.751 30.9687Z" fill="url(#paint1_radial_105_198)"/>
<path d="M83.9378 26.9666V25.4618C81.5463 26.3217 79.3673 28.0653 77.4009 30.6927C75.4346 33.2723 74.3983 35.7086 74.292 38.0016V59.7134H68.7117V23.8853H74.292V35.2787C75.1423 32.508 76.7632 29.9045 79.1547 27.4681C81.5463 24.9841 84.2567 23.6943 87.2859 23.5987H87.6048C88.6677 23.5987 89.5446 23.9331 90.2355 24.6019C90.9795 25.2229 91.3515 26.0111 91.3515 26.9666C91.3515 27.922 90.9795 28.7102 90.2355 29.3312C89.5446 29.9522 88.6677 30.2627 87.6048 30.2627C86.5419 30.2627 85.665 29.9522 84.9741 29.3312C84.2832 28.7102 83.9378 27.922 83.9378 26.9666Z" fill="url(#paint2_radial_105_198)"/>
<path d="M112.586 25.4618V26.9666C112.586 27.922 112.932 28.7102 113.623 29.3312C114.313 29.9522 115.19 30.2627 116.253 30.2627C117.316 30.2627 118.193 29.9522 118.884 29.3312C119.628 28.7102 120 27.922 120 26.9666C120 26.0111 119.628 25.2229 118.884 24.6019C118.193 23.9331 117.316 23.5987 116.253 23.5987H115.934C112.905 23.6943 110.195 24.9841 107.803 27.4681C105.412 29.9045 103.791 32.508 102.94 35.2787V23.8853H97.3602V59.7134H102.94V38.0016C103.047 35.7086 104.083 33.2723 106.049 30.6927C108.016 28.0653 110.195 26.3217 112.586 25.4618Z" fill="url(#paint3_radial_105_198)"/>
<path d="M33.2156 14.9283C33.2156 23.173 25.7801 29.8567 16.6078 29.8567C7.43557 29.8567 0 23.173 0 14.9283C0 6.68365 7.43557 0 16.6078 0C25.7801 0 33.2156 6.68365 33.2156 14.9283Z" fill="url(#paint4_linear_105_198)"/>
<defs>
<radialGradient id="paint0_radial_105_198" cx="0" cy="0" r="1" gradientUnits="userSpaceOnUse" gradientTransform="translate(1.38153 57.067) rotate(-16.8598) scale(127.26 207.105)">
<stop stop-color="#001379"/>
<stop offset="0.699793" stop-color="#0368B2"/>
<stop offset="1" stop-color="#AE2CC8"/>
</radialGradient>
<radialGradient id="paint1_radial_105_198" cx="0" cy="0" r="1" gradientUnits="userSpaceOnUse" gradientTransform="translate(1.38153 57.067) rotate(-16.8598) scale(127.26 207.105)">
<stop stop-color="#001379"/>
<stop offset="0.699793" stop-color="#0368B2"/>
<stop offset="1" stop-color="#AE2CC8"/>
</radialGradient>
<radialGradient id="paint2_radial_105_198" cx="0" cy="0" r="1" gradientUnits="userSpaceOnUse" gradientTransform="translate(1.38153 57.067) rotate(-16.8598) scale(127.26 207.105)">
<stop stop-color="#001379"/>
<stop offset="0.699793" stop-color="#0368B2"/>
<stop offset="1" stop-color="#AE2CC8"/>
</radialGradient>
<radialGradient id="paint3_radial_105_198" cx="0" cy="0" r="1" gradientUnits="userSpaceOnUse" gradientTransform="translate(1.38153 57.067) rotate(-16.8598) scale(127.26 207.105)">
<stop stop-color="#001379"/>
<stop offset="0.699793" stop-color="#0368B2"/>
<stop offset="1" stop-color="#AE2CC8"/>
</radialGradient>
<linearGradient id="paint4_linear_105_198" x1="16.6078" y1="29.8567" x2="16.6078" y2="0" gradientUnits="userSpaceOnUse">
<stop offset="0.27" stop-color="#33A9FF"/>
<stop offset="0.65" stop-color="#880C91"/>
<stop offset="1" stop-color="#D701B5"/>
</linearGradient>
</defs>
</svg>
