<svg width="430" height="932" viewBox="0 0 430 932" fill="none" xmlns="http://www.w3.org/2000/svg">
<g clip-path="url(#clip0_111_14)">
<rect width="430" height="932" fill="white"/>
<g clip-path="url(#clip1_111_14)">
<ellipse cx="420.5" cy="15.5" rx="66.5" ry="58.5" fill="url(#paint0_linear_111_14)"/>
<path d="M-46.5001 681.924C-49.661 681.388 -51.8279 678.372 -50.8573 675.316C-49.1964 670.088 -46.5134 665.23 -42.952 661.052C-38.1389 655.406 -31.9087 651.22 -24.9502 648.959C-17.9918 646.697 -10.5759 646.447 -3.52244 648.237C3.53104 650.026 9.94746 653.786 15.0176 659.099C20.0877 664.413 23.6141 671.074 25.2069 678.345C26.7997 685.617 26.397 693.217 24.0432 700.304C21.6894 707.391 17.4762 713.69 11.8694 718.505C7.81477 721.987 3.14553 724.594 -1.85485 726.196C-5.0174 727.209 -8.10403 724.892 -8.56371 721.603C-9.01327 718.386 -6.76033 715.463 -3.72949 714.296C-0.766268 713.155 2.00433 711.502 4.4564 709.397C8.41342 705.999 11.3868 701.553 13.048 696.552C14.7092 691.55 14.9934 686.186 13.8693 681.054C12.7452 675.922 10.2564 671.221 6.67823 667.471C3.10002 663.721 -1.42834 661.068 -6.4063 659.805C-11.3843 658.542 -16.6179 658.719 -21.5289 660.315C-26.4398 661.911 -30.8367 664.865 -34.2335 668.85C-36.377 671.364 -38.0695 674.228 -39.2484 677.305C-40.3953 680.299 -43.3392 682.461 -46.5001 681.924Z" fill="url(#paint1_linear_111_14)"/>
<path d="M455.149 810.324C456.476 813.242 455.192 816.727 452.117 817.635C446.856 819.189 441.329 819.689 435.873 819.08C428.499 818.257 421.542 815.442 415.77 810.945C409.998 806.449 405.636 800.446 403.166 793.601C400.696 786.756 400.215 779.335 401.775 772.158C403.336 764.982 406.877 758.329 412.007 752.935C417.138 747.541 423.658 743.617 430.848 741.596C438.037 739.574 445.615 739.534 452.744 741.481C457.9 742.889 462.676 745.295 466.804 748.54C469.415 750.591 469.225 754.446 466.759 756.67C464.347 758.844 460.663 758.616 457.998 756.76C455.393 754.945 452.472 753.576 449.354 752.724C444.322 751.351 438.974 751.379 433.9 752.805C428.826 754.232 424.225 757.002 420.604 760.808C416.983 764.615 414.484 769.31 413.382 774.375C412.281 779.44 412.621 784.677 414.364 789.508C416.107 794.339 419.185 798.575 423.259 801.748C427.333 804.922 432.243 806.909 437.447 807.489C440.73 807.856 444.05 807.654 447.26 806.906C450.382 806.178 453.822 807.405 455.149 810.324Z" fill="url(#paint2_linear_111_14)"/>
<path d="M145.448 945.136C139.394 947.609 135.962 941.704 141.229 937.828C164.113 920.993 194.862 899.463 200.506 898.868C209.297 897.941 218.701 899.606 227.677 903.681C236.653 907.755 244.852 914.079 251.368 921.955C257.884 929.83 262.463 938.95 264.599 948.305C266.735 957.661 266.345 966.889 263.472 974.968C260.598 983.048 255.354 989.664 248.317 994.087C241.281 998.509 232.728 1000.57 223.602 1000.03C216.278 999.596 208.815 997.508 201.746 993.94C198.734 992.42 197.668 988.745 199.084 985.683C200.777 982.019 205.296 980.725 209.032 982.252C213.067 983.902 217.228 984.879 221.326 985.12C227.767 985.499 233.803 984.048 238.769 980.927C243.735 977.806 247.436 973.136 249.464 967.434C251.492 961.732 140.483 960.701 138.976 954.098C137.468 947.496 236.792 931.191 232.193 925.633C227.595 920.075 239.491 936.6 233.156 933.725C226.821 930.849 188.147 942.592 181.942 943.247C176.085 943.864 153.446 941.074 147.36 944.118C146.714 944.442 146.117 944.863 145.448 945.136Z" fill="url(#paint3_linear_111_14)"/>
<path d="M16.4341 -8.75034C18.295 -11.361 21.9544 -11.9954 24.2808 -9.7894C28.2617 -6.01447 31.4629 -1.4816 33.6694 3.54541C36.6515 10.3392 37.7008 17.771 36.7013 25.0192C35.7017 32.2674 32.6924 39.0498 28.0058 44.6166C23.3192 50.1835 17.1379 54.318 10.1451 56.5633C3.15238 58.8085 -4.37948 59.0769 -11.6179 57.339C-18.8564 55.601 -25.5195 51.9242 -30.8708 46.7151C-36.2221 41.506 -40.0532 34.9675 -41.9405 27.8222C-43.3054 22.655 -43.6154 17.3161 -42.8759 12.1178C-42.4082 8.83013 -38.977 7.06299 -35.8169 8.08366C-32.7264 9.08189 -31.0782 12.3842 -31.3498 15.6206C-31.6153 18.7848 -31.3366 21.9987 -30.5112 25.1236C-29.1792 30.1664 -26.4754 34.7809 -22.6988 38.4572C-18.9221 42.1335 -14.2197 44.7283 -9.11116 45.9549C-4.00266 47.1815 1.31292 46.992 6.24801 45.4075C11.1831 43.8229 15.5455 40.905 18.8531 36.9762C22.1606 33.0474 24.2845 28.2608 24.9899 23.1454C25.6953 18.03 24.9548 12.7851 22.8502 7.99039C21.5222 4.9649 19.6837 2.19302 17.4287 -0.209786C15.2348 -2.54759 14.5731 -6.13968 16.4341 -8.75034Z" fill="url(#paint4_linear_111_14)"/>
</g>
</g>
<defs>
<linearGradient id="paint0_linear_111_14" x1="420.5" y1="-43" x2="420.5" y2="74" gradientUnits="userSpaceOnUse">
<stop stop-color="#8433FF"/>
<stop offset="0.585" stop-color="#126EB0"/>
<stop offset="0.94" stop-color="#AE12B0"/>
</linearGradient>
<linearGradient id="paint1_linear_111_14" x1="-20.0994" y1="727.505" x2="-6.54654" y2="647.598" gradientUnits="userSpaceOnUse">
<stop stop-color="#8433FF"/>
<stop offset="0.585" stop-color="#126EB0"/>
<stop offset="0.94" stop-color="#AE12B0"/>
</linearGradient>
<linearGradient id="paint2_linear_111_14" x1="478.111" y1="762.918" x2="404.331" y2="796.464" gradientUnits="userSpaceOnUse">
<stop stop-color="#8433FF"/>
<stop offset="0.585" stop-color="#126EB0"/>
<stop offset="0.94" stop-color="#AE12B0"/>
</linearGradient>
<linearGradient id="paint3_linear_111_14" x1="182.7" y1="975.467" x2="247.95" y2="914.129" gradientUnits="userSpaceOnUse">
<stop stop-color="#8433FF"/>
<stop offset="0.585" stop-color="#126EB0"/>
<stop offset="0.94" stop-color="#AE12B0"/>
</linearGradient>
<linearGradient id="paint4_linear_111_14" x1="-36.0975" y1="-4.87135" x2="29.8997" y2="42.174" gradientUnits="userSpaceOnUse">
<stop stop-color="#8433FF"/>
<stop offset="0.585" stop-color="#126EB0"/>
<stop offset="0.94" stop-color="#AE12B0"/>
</linearGradient>
<clipPath id="clip0_111_14">
<rect width="430" height="932" fill="white"/>
</clipPath>
<clipPath id="clip1_111_14">
<rect width="553.442" height="1086.3" fill="white" transform="translate(-59 -43)"/>
</clipPath>
</defs>
</svg>
