<svg width="89" height="12" viewBox="0 0 89 12" fill="none" xmlns="http://www.w3.org/2000/svg">
<path d="M8.04 11.5H0.525V10.6H1.485V1.9H0.525V0.999999H7.83V3.31H6.93V1.9H2.43V5.755H7.245V6.655H2.43V10.6H7.14V9.19H8.04V11.5ZM12.2143 11.5H9.09434V10.6H10.2493V6.775H9.21434V5.875H11.0593L11.0743 6.205C11.0843 6.415 11.0943 6.605 11.1043 6.775C11.1143 6.935 11.1293 7.12 11.1493 7.33C11.3593 6.85 11.6743 6.47 12.0943 6.19C12.5243 5.91 13.0243 5.765 13.5943 5.755C14.1243 5.755 14.5543 5.895 14.8843 6.175C15.2143 6.445 15.4093 6.805 15.4693 7.255C15.6793 6.795 15.9943 6.435 16.4143 6.175C16.8443 5.905 17.3343 5.765 17.8843 5.755C18.4543 5.755 18.9043 5.91 19.2343 6.22C19.5643 6.53 19.7393 6.935 19.7593 7.435V10.6H20.7943V11.5H17.6743V10.6H18.8143V7.81C18.7943 7.51 18.6843 7.255 18.4843 7.045C18.2943 6.825 18.0043 6.705 17.6143 6.685C17.3343 6.685 17.0643 6.735 16.8043 6.835C16.5543 6.925 16.3343 7.055 16.1443 7.225C15.9443 7.395 15.7843 7.595 15.6643 7.825C15.5443 8.055 15.4843 8.305 15.4843 8.575V10.6H16.5043V11.5H13.3843V10.6H14.5393V7.81C14.5193 7.51 14.4093 7.255 14.2093 7.045C14.0193 6.825 13.7243 6.705 13.3243 6.685C13.0343 6.685 12.7593 6.735 12.4993 6.835C12.2493 6.925 12.0293 7.055 11.8393 7.225C11.6393 7.395 11.4793 7.6 11.3593 7.84C11.2493 8.07 11.1943 8.325 11.1943 8.605V10.6H12.2143V11.5ZM28.9335 11.5H26.9685V11.05C26.9685 10.96 26.9685 10.88 26.9685 10.81C26.9685 10.74 26.9685 10.66 26.9685 10.57C26.9285 10.67 26.8485 10.78 26.7285 10.9C26.6185 11.02 26.4735 11.13 26.2935 11.23C26.1035 11.35 25.8835 11.445 25.6335 11.515C25.3935 11.585 25.1235 11.62 24.8235 11.62C24.4035 11.62 24.0085 11.545 23.6385 11.395C23.2785 11.235 22.9685 11.02 22.7085 10.75C22.4385 10.49 22.2235 10.185 22.0635 9.835C21.9135 9.475 21.8385 9.095 21.8385 8.695C21.8385 8.295 21.9135 7.915 22.0635 7.555C22.2235 7.195 22.4385 6.885 22.7085 6.625C22.9685 6.355 23.2785 6.14 23.6385 5.98C24.0085 5.82 24.4035 5.74 24.8235 5.74C25.3935 5.74 25.8635 5.86 26.2335 6.1C26.6035 6.34 26.8485 6.6 26.9685 6.88C26.9685 6.72 26.9735 6.555 26.9835 6.385C27.0035 6.215 27.0185 6.045 27.0285 5.875H27.8085V10.6H28.9335V11.5ZM24.8235 6.67C24.5235 6.67 24.2435 6.725 23.9835 6.835C23.7235 6.935 23.5085 7.085 23.3385 7.285C23.1585 7.465 23.0235 7.675 22.9335 7.915C22.8435 8.145 22.7985 8.4 22.7985 8.68C22.7985 8.99 22.8585 9.28 22.9785 9.55C23.0985 9.81 23.2685 10.03 23.4885 10.21C23.6585 10.36 23.8535 10.48 24.0735 10.57C24.3035 10.66 24.5535 10.705 24.8235 10.705C25.1035 10.705 25.3635 10.655 25.6035 10.555C25.8535 10.455 26.0685 10.32 26.2485 10.15C26.4385 9.97 26.5885 9.755 26.6985 9.505C26.8085 9.245 26.8635 8.97 26.8635 8.68C26.8635 8.39 26.8085 8.12 26.6985 7.87C26.5885 7.61 26.4385 7.395 26.2485 7.225C26.0685 7.045 25.8535 6.91 25.6035 6.82C25.3635 6.72 25.1035 6.67 24.8235 6.67ZM33.103 11.5H29.983V10.6H31.078V6.775H29.983V5.875H32.023V10.6H33.103V11.5ZM32.203 3.79C32.203 3.97 32.138 4.125 32.008 4.255C31.878 4.375 31.733 4.435 31.573 4.435C31.413 4.435 31.263 4.375 31.123 4.255C30.993 4.125 30.928 3.97 30.928 3.79C30.928 3.6 30.993 3.445 31.123 3.325C31.263 3.195 31.413 3.13 31.573 3.13C31.733 3.13 31.878 3.195 32.008 3.325C32.138 3.445 32.203 3.6 32.203 3.79ZM37.2778 11.5H34.1578V10.6H35.2828V1.15H34.2628V0.249999H36.2278V10.6H37.2778V11.5ZM49.9247 11.5H47.9597V11.05C47.9597 10.96 47.9597 10.88 47.9597 10.81C47.9597 10.74 47.9597 10.66 47.9597 10.57C47.9197 10.67 47.8397 10.78 47.7197 10.9C47.6097 11.02 47.4647 11.13 47.2847 11.23C47.0947 11.35 46.8747 11.445 46.6247 11.515C46.3847 11.585 46.1147 11.62 45.8147 11.62C45.3947 11.62 44.9997 11.545 44.6297 11.395C44.2697 11.235 43.9597 11.02 43.6997 10.75C43.4297 10.49 43.2147 10.185 43.0547 9.835C42.9047 9.475 42.8297 9.095 42.8297 8.695C42.8297 8.295 42.9047 7.915 43.0547 7.555C43.2147 7.195 43.4297 6.885 43.6997 6.625C43.9597 6.355 44.2697 6.14 44.6297 5.98C44.9997 5.82 45.3947 5.74 45.8147 5.74C46.3847 5.74 46.8547 5.86 47.2247 6.1C47.5947 6.34 47.8397 6.6 47.9597 6.88C47.9597 6.72 47.9647 6.555 47.9747 6.385C47.9947 6.215 48.0097 6.045 48.0197 5.875H48.7997V10.6H49.9247V11.5ZM45.8147 6.67C45.5147 6.67 45.2347 6.725 44.9747 6.835C44.7147 6.935 44.4997 7.085 44.3297 7.285C44.1497 7.465 44.0147 7.675 43.9247 7.915C43.8347 8.145 43.7897 8.4 43.7897 8.68C43.7897 8.99 43.8497 9.28 43.9697 9.55C44.0897 9.81 44.2597 10.03 44.4797 10.21C44.6497 10.36 44.8447 10.48 45.0647 10.57C45.2947 10.66 45.5447 10.705 45.8147 10.705C46.0947 10.705 46.3547 10.655 46.5947 10.555C46.8447 10.455 47.0597 10.32 47.2397 10.15C47.4297 9.97 47.5797 9.755 47.6897 9.505C47.7997 9.245 47.8547 8.97 47.8547 8.68C47.8547 8.39 47.7997 8.12 47.6897 7.87C47.5797 7.61 47.4297 7.395 47.2397 7.225C47.0597 7.045 46.8447 6.91 46.5947 6.82C46.3547 6.72 46.0947 6.67 45.8147 6.67ZM58.0692 11.5H56.1042V11.05C56.1042 10.96 56.1042 10.88 56.1042 10.81C56.1042 10.74 56.1042 10.66 56.1042 10.57C56.0642 10.67 55.9842 10.78 55.8642 10.9C55.7542 11.02 55.6092 11.13 55.4292 11.23C55.2392 11.35 55.0192 11.445 54.7692 11.515C54.5292 11.585 54.2592 11.62 53.9592 11.62C53.5392 11.62 53.1442 11.545 52.7742 11.395C52.4142 11.235 52.1042 11.02 51.8442 10.75C51.5742 10.49 51.3592 10.18 51.1992 9.82C51.0492 9.46 50.9742 9.08 50.9742 8.68C50.9742 8.28 51.0492 7.905 51.1992 7.555C51.3592 7.195 51.5742 6.88 51.8442 6.61C52.1042 6.34 52.4142 6.13 52.7742 5.98C53.1442 5.82 53.5392 5.74 53.9592 5.74C54.2292 5.74 54.4842 5.78 54.7242 5.86C54.9642 5.93 55.1792 6.02 55.3692 6.13C55.5592 6.25 55.7042 6.365 55.8042 6.475C55.9042 6.575 55.9792 6.675 56.0292 6.775C56.0092 6.595 55.9992 6.435 55.9992 6.295C55.9992 6.145 55.9992 5.99 55.9992 5.83V1.15H54.9642V0.249999H56.9442V10.6H58.0692V11.5ZM53.9592 6.67C53.6592 6.67 53.3842 6.725 53.1342 6.835C52.8842 6.935 52.6692 7.075 52.4892 7.255C52.3192 7.435 52.1842 7.65 52.0842 7.9C51.9842 8.14 51.9342 8.4 51.9342 8.68C51.9342 8.97 51.9892 9.245 52.0992 9.505C52.2092 9.765 52.3592 9.985 52.5492 10.165C52.7292 10.335 52.9392 10.47 53.1792 10.57C53.4192 10.66 53.6792 10.705 53.9592 10.705C54.2392 10.705 54.4942 10.66 54.7242 10.57C54.9642 10.47 55.1792 10.335 55.3692 10.165C55.5592 9.985 55.7092 9.765 55.8192 9.505C55.9392 9.245 55.9992 8.97 55.9992 8.68C55.9992 8.37 55.9392 8.09 55.8192 7.84C55.6992 7.58 55.5392 7.36 55.3392 7.18C55.1692 7.02 54.9642 6.895 54.7242 6.805C54.4842 6.715 54.2292 6.67 53.9592 6.67ZM66.2138 11.5H64.2488V11.05C64.2488 10.96 64.2488 10.88 64.2488 10.81C64.2488 10.74 64.2488 10.66 64.2488 10.57C64.2088 10.67 64.1288 10.78 64.0088 10.9C63.8988 11.02 63.7538 11.13 63.5738 11.23C63.3838 11.35 63.1638 11.445 62.9138 11.515C62.6738 11.585 62.4038 11.62 62.1038 11.62C61.6838 11.62 61.2888 11.545 60.9188 11.395C60.5588 11.235 60.2488 11.02 59.9888 10.75C59.7188 10.49 59.5038 10.18 59.3438 9.82C59.1938 9.46 59.1188 9.08 59.1188 8.68C59.1188 8.28 59.1938 7.905 59.3438 7.555C59.5038 7.195 59.7188 6.88 59.9888 6.61C60.2488 6.34 60.5588 6.13 60.9188 5.98C61.2888 5.82 61.6838 5.74 62.1038 5.74C62.3738 5.74 62.6288 5.78 62.8688 5.86C63.1088 5.93 63.3238 6.02 63.5138 6.13C63.7038 6.25 63.8488 6.365 63.9488 6.475C64.0488 6.575 64.1238 6.675 64.1738 6.775C64.1538 6.595 64.1438 6.435 64.1438 6.295C64.1438 6.145 64.1438 5.99 64.1438 5.83V1.15H63.1088V0.249999H65.0888V10.6H66.2138V11.5ZM62.1038 6.67C61.8038 6.67 61.5288 6.725 61.2788 6.835C61.0288 6.935 60.8138 7.075 60.6338 7.255C60.4638 7.435 60.3288 7.65 60.2288 7.9C60.1288 8.14 60.0788 8.4 60.0788 8.68C60.0788 8.97 60.1338 9.245 60.2438 9.505C60.3538 9.765 60.5038 9.985 60.6938 10.165C60.8738 10.335 61.0838 10.47 61.3238 10.57C61.5638 10.66 61.8238 10.705 62.1038 10.705C62.3838 10.705 62.6388 10.66 62.8688 10.57C63.1088 10.47 63.3238 10.335 63.5138 10.165C63.7038 9.985 63.8538 9.765 63.9638 9.505C64.0838 9.245 64.1438 8.97 64.1438 8.68C64.1438 8.37 64.0838 8.09 63.9638 7.84C63.8438 7.58 63.6838 7.36 63.4838 7.18C63.3138 7.02 63.1088 6.895 62.8688 6.805C62.6288 6.715 62.3738 6.67 62.1038 6.67ZM70.3833 11.5H67.2633V10.6H68.4183V6.775H67.3833V5.875H69.2283L69.2733 6.655C69.2933 6.865 69.2983 6.98 69.2883 7C69.2883 7.01 69.2983 7.12 69.3183 7.33C69.4383 7.08 69.5883 6.86 69.7683 6.67C69.9483 6.47 70.1433 6.305 70.3533 6.175C70.5633 6.035 70.7683 5.93 70.9683 5.86C71.1783 5.79 71.3783 5.755 71.5683 5.755L71.5083 6.685C71.2383 6.685 70.9833 6.725 70.7433 6.805C70.5033 6.875 70.2933 6.98 70.1133 7.12C69.8833 7.29 69.6983 7.505 69.5583 7.765C69.4283 8.015 69.3633 8.295 69.3633 8.605V10.6H70.3833V11.5ZM75.5946 6.67C75.2646 6.67 74.9646 6.735 74.6946 6.865C74.4346 6.985 74.2096 7.155 74.0196 7.375C73.8696 7.565 73.7546 7.785 73.6746 8.035C73.5946 8.285 73.5696 8.55 73.5996 8.83C74.1696 8.61 74.7346 8.39 75.2946 8.17C75.8646 7.95 76.4346 7.735 77.0046 7.525C76.8446 7.265 76.6446 7.06 76.4046 6.91C76.1646 6.75 75.8946 6.67 75.5946 6.67ZM77.5296 10.825C77.2796 11.075 76.9896 11.27 76.6596 11.41C76.3396 11.55 75.9846 11.62 75.5946 11.62C75.1846 11.62 74.7946 11.545 74.4246 11.395C74.0646 11.235 73.7546 11.025 73.4946 10.765C73.2246 10.495 73.0096 10.185 72.8496 9.835C72.6996 9.475 72.6246 9.09 72.6246 8.68C72.6246 8.28 72.6996 7.9 72.8496 7.54C73.0096 7.18 73.2246 6.865 73.4946 6.595C73.7546 6.335 74.0646 6.13 74.4246 5.98C74.7946 5.82 75.1846 5.74 75.5946 5.74C75.9046 5.74 76.1996 5.8 76.4796 5.92C76.7596 6.04 77.0146 6.2 77.2446 6.4C77.4646 6.61 77.6546 6.855 77.8146 7.135C77.9846 7.415 78.1146 7.72 78.2046 8.05C77.4746 8.33 76.7496 8.61 76.0296 8.89C75.3096 9.16 74.5846 9.435 73.8546 9.715C74.0246 10.015 74.2596 10.255 74.5596 10.435C74.8596 10.615 75.2046 10.705 75.5946 10.705C75.8646 10.705 76.1146 10.66 76.3446 10.57C76.5746 10.47 76.7746 10.33 76.9446 10.15L77.5296 10.825ZM82.8439 10.99C82.7039 11.17 82.5089 11.32 82.2589 11.44C82.0189 11.56 81.7139 11.62 81.3439 11.62C81.0039 11.62 80.6689 11.58 80.3389 11.5C80.0189 11.41 79.7489 11.255 79.5289 11.035V9.82H80.3839V10.495C80.5339 10.585 80.6839 10.64 80.8339 10.66C80.9939 10.68 81.1739 10.69 81.3739 10.69C81.4839 10.69 81.5939 10.675 81.7039 10.645C81.8139 10.615 81.9189 10.565 82.0189 10.495C82.0889 10.435 82.1489 10.36 82.1989 10.27C82.2489 10.17 82.2739 10.05 82.2739 9.91C82.2739 9.69 82.2139 9.525 82.0939 9.415C81.9839 9.295 81.8339 9.2 81.6439 9.13C81.4539 9.05 81.2439 8.98 81.0139 8.92C80.7939 8.85 80.5839 8.76 80.3839 8.65C80.1939 8.54 80.0339 8.39 79.9039 8.2C79.7739 8 79.7089 7.73 79.7089 7.39C79.7089 7.1 79.7639 6.855 79.8739 6.655C79.9839 6.445 80.1239 6.275 80.2939 6.145C80.4639 6.015 80.6539 5.92 80.8639 5.86C81.0739 5.79 81.2689 5.755 81.4489 5.755C81.5589 5.755 81.6789 5.765 81.8089 5.785C81.9489 5.805 82.0939 5.84 82.2439 5.89C82.3839 5.94 82.5189 6 82.6489 6.07C82.7889 6.14 82.9089 6.23 83.0089 6.34V7.555H82.1539V6.835C82.0539 6.785 81.9489 6.75 81.8389 6.73C81.7289 6.7 81.6089 6.685 81.4789 6.685C81.3689 6.685 81.2589 6.7 81.1489 6.73C81.0489 6.76 80.9589 6.8 80.8789 6.85C80.8089 6.92 80.7539 7 80.7139 7.09C80.6739 7.18 80.6589 7.285 80.6689 7.405C80.6789 7.575 80.7489 7.71 80.8789 7.81C81.0189 7.91 81.1839 7.995 81.3739 8.065C81.5639 8.145 81.7689 8.23 81.9889 8.32C82.2089 8.4 82.4089 8.5 82.5889 8.62C82.7789 8.75 82.9339 8.915 83.0539 9.115C83.1739 9.315 83.2339 9.575 83.2339 9.895C83.2339 10.045 83.2039 10.22 83.1439 10.42C83.0839 10.62 82.9839 10.81 82.8439 10.99ZM87.7512 10.99C87.6112 11.17 87.4162 11.32 87.1662 11.44C86.9262 11.56 86.6212 11.62 86.2512 11.62C85.9112 11.62 85.5762 11.58 85.2462 11.5C84.9262 11.41 84.6562 11.255 84.4362 11.035V9.82H85.2912V10.495C85.4412 10.585 85.5912 10.64 85.7412 10.66C85.9012 10.68 86.0812 10.69 86.2812 10.69C86.3912 10.69 86.5012 10.675 86.6112 10.645C86.7212 10.615 86.8262 10.565 86.9262 10.495C86.9962 10.435 87.0562 10.36 87.1062 10.27C87.1562 10.17 87.1812 10.05 87.1812 9.91C87.1812 9.69 87.1212 9.525 87.0012 9.415C86.8912 9.295 86.7412 9.2 86.5512 9.13C86.3612 9.05 86.1512 8.98 85.9212 8.92C85.7012 8.85 85.4912 8.76 85.2912 8.65C85.1012 8.54 84.9412 8.39 84.8112 8.2C84.6812 8 84.6162 7.73 84.6162 7.39C84.6162 7.1 84.6712 6.855 84.7812 6.655C84.8912 6.445 85.0312 6.275 85.2012 6.145C85.3712 6.015 85.5612 5.92 85.7712 5.86C85.9812 5.79 86.1762 5.755 86.3562 5.755C86.4662 5.755 86.5862 5.765 86.7162 5.785C86.8562 5.805 87.0012 5.84 87.1512 5.89C87.2912 5.94 87.4262 6 87.5562 6.07C87.6962 6.14 87.8162 6.23 87.9162 6.34V7.555H87.0612V6.835C86.9612 6.785 86.8562 6.75 86.7462 6.73C86.6362 6.7 86.5162 6.685 86.3862 6.685C86.2762 6.685 86.1662 6.7 86.0562 6.73C85.9562 6.76 85.8662 6.8 85.7862 6.85C85.7162 6.92 85.6612 7 85.6212 7.09C85.5812 7.18 85.5662 7.285 85.5762 7.405C85.5862 7.575 85.6562 7.71 85.7862 7.81C85.9262 7.91 86.0912 7.995 86.2812 8.065C86.4712 8.145 86.6762 8.23 86.8962 8.32C87.1162 8.4 87.3162 8.5 87.4962 8.62C87.6862 8.75 87.8412 8.915 87.9612 9.115C88.0812 9.315 88.1412 9.575 88.1412 9.895C88.1412 10.045 88.1112 10.22 88.0512 10.42C87.9912 10.62 87.8912 10.81 87.7512 10.99Z" fill="black"/>
</svg>
